<svg xmlns="http://www.w3.org/2000/svg" version="1.1" xmlns:xlink="http://www.w3.org/1999/xlink" width="512" height="512" x="0" y="0" viewBox="0 0 504 504" style="enable-background:new 0 0 512 512" xml:space="preserve" class=""><g><path d="M219.6 202.4v92l84.8-45.6z" fill="#E1D8C9" opacity="1" data-original="#000000" class=""></path><path d="M377.6 0H126C56.8 0 0 56.8 0 126.4V378c0 69.2 56.8 126 126 126h251.6c69.6 0 126.4-56.8 126.4-126.4V126.4C504 56.8 447.2 0 377.6 0zM408 264.4c0 26.4-2.4 53.2-2.4 53.2s-2.8 22.4-12 32.4c-12 13.2-25.2 13.2-31.2 14-44 3.2-110 3.6-110 3.6s-82-1.2-107.2-3.6c-6.8-1.2-22.8-.8-34.8-14-9.6-10-12-32.4-12-32.4S96 290.8 96 264.4v-24.8c0-26.4 2.4-53.2 2.4-53.2s2.8-22.4 12-32.4c12-13.2 25.2-13.6 31.2-14.4C186 136.4 252 136 252 136s66 .4 110 3.6c6 .8 19.6 1.2 31.6 14 9.6 10 12 32.8 12 32.8s2.4 26.8 2.4 53.2v24.8z" fill="#E1D8C9" opacity="1" data-original="#000000" class=""></path></g></svg>
